M48
; DRILL file KiCad 10.0.0 date 2026-03-29T20:09:30
; FORMAT={-:-/ absolute / metric / decimal}
; #@! TF.CreationDate,2026-03-29T20:09:30+01:00
; #@! TF.GenerationSoftware,Kicad,Pcbnew,10.0.0
; #@! TF.FileFunction,Plated,1,2,PTH
FMAT,2
METRIC
; #@! TA.AperFunction,Plated,PTH,ComponentDrill
T1C0.800
; #@! TA.AperFunction,Plated,PTH,ComponentDrill
T2C0.900
; #@! TA.AperFunction,Plated,PTH,ComponentDrill
T3C1.000
%
G90
G05
T1
X133.61Y-92.405
X133.61Y-96.455
X133.61Y-100.505
X133.61Y-104.555
X143.77Y-92.405
X143.77Y-96.455
X143.77Y-100.505
X143.77Y-104.555
T2
X134.46Y-60.5
X134.5Y-71.0
X134.5Y-79.175
X134.5Y-86.645
X137.0Y-60.5
X137.04Y-71.0
X137.04Y-79.175
X137.04Y-86.645
T3
X115.295Y-62.805
X115.295Y-65.345
X115.295Y-67.885
X115.295Y-70.425
X115.295Y-72.965
X115.295Y-75.505
X115.295Y-78.045
X115.295Y-80.585
X115.295Y-83.125
X115.295Y-85.665
X115.295Y-88.205
X115.295Y-90.745
X115.295Y-93.285
X115.295Y-95.825
X115.295Y-98.365
X115.295Y-100.905
X115.295Y-103.445
X115.295Y-105.985
X115.295Y-108.525
X115.295Y-111.065
X117.835Y-62.805
X117.835Y-65.345
X117.835Y-67.885
X117.835Y-70.425
X117.835Y-72.965
X117.835Y-75.505
X117.835Y-78.045
X117.835Y-80.585
X117.835Y-83.125
X117.835Y-85.665
X117.835Y-88.205
X117.835Y-90.745
X117.835Y-93.285
X117.835Y-95.825
X117.835Y-98.365
X117.835Y-100.905
X117.835Y-103.445
X117.835Y-105.985
X117.835Y-108.525
X117.835Y-111.065
M30
